<?xml version="1.0" standalone="no"?>
<!DOCTYPE svg PUBLIC "-//W3C//DTD SVG 20010904//EN"
 "http://www.w3.org/TR/2001/REC-SVG-20010904/DTD/svg10.dtd">
<svg version="1.0" xmlns="http://www.w3.org/2000/svg"
 width="256.000000pt" height="256.000000pt" viewBox="0 0 256.000000 256.000000"
 preserveAspectRatio="xMidYMid meet">
<metadata>
Created by potrace 1.11, written by Peter Selinger 2001-2013
</metadata>
<g transform="translate(0.000000,256.000000) scale(0.100000,-0.100000)"
fill="#000000" stroke="none">
<path d="M1120 2143 c-41 -8 -84 -15 -95 -17 -11 -2 -29 -7 -40 -11 -11 -5
-42 -17 -70 -27 -67 -26 -156 -75 -237 -132 -68 -47 -228 -200 -228 -217 0 -5
-4 -9 -9 -9 -8 0 -19 39 -24 82 -1 9 -4 15 -8 12 -4 -2 -19 6 -34 18 -34 27
-112 29 -149 5 -60 -40 -60 -38 -60 -550 -1 -258 1 -472 4 -476 3 -4 62 -7
133 -7 l127 -1 1 31 c1 17 2 141 2 276 l2 244 845 0 845 0 2 -264 c1 -146 2
-270 2 -276 1 -16 254 -13 261 3 3 7 5 221 4 475 0 500 0 500 -54 540 -39 28
-91 33 -135 12 -40 -19 -75 -66 -75 -101 0 -13 -4 -23 -10 -23 -5 0 -10 4 -10
9 0 20 -170 176 -250 231 -116 78 -256 145 -325 156 -11 1 -45 8 -75 14 -83
17 -255 18 -340 3z m115 -346 c0 -147 -3 -267 -6 -267 -4 0 -28 26 -55 58 -27
31 -55 64 -64 72 -13 12 -127 137 -242 264 l-27 30 47 24 c68 34 181 71 243
78 30 3 56 8 58 10 2 2 13 2 25 0 20 -3 21 -7 21 -269z m200 258 c63 -8 172
-45 250 -83 l60 -30 1 -195 c1 -146 -2 -192 -10 -184 -7 7 -37 48 -69 92 -31
44 -60 85 -65 90 -4 6 -23 33 -42 60 -19 28 -37 52 -40 55 -3 3 -35 46 -70 95
-35 50 -68 96 -74 104 -6 9 -7 12 -1 9 6 -3 33 -9 60 -13z m-43 -172 c36 -49
103 -142 151 -208 47 -66 99 -138 115 -160 16 -22 32 -46 36 -52 6 -10 -34
-13 -181 -11 l-188 1 0 259 c-1 142 0 258 1 258 1 0 31 -39 66 -87z m-667
-173 c0 -93 -3 -166 -7 -162 -21 23 -148 188 -148 193 0 4 28 32 63 63 34 31
67 61 72 66 6 5 12 9 15 9 3 1 5 -75 5 -169z m1147 143 c18 -16 52 -47 76 -70
l44 -42 -77 -100 c-43 -56 -78 -101 -79 -101 -1 0 -1 77 -1 170 0 94 1 170 3
170 1 0 17 -12 34 -27z m-938 -134 c182 -197 231 -252 234 -260 2 -4 -77 -8
-176 -8 l-180 1 0 201 -1 202 36 -40 c19 -22 58 -65 87 -96z m-373 -116 c30
-38 56 -70 59 -73 3 -3 17 -21 32 -42 l28 -36 -123 1 -122 2 -1 55 c-1 44 4
63 25 95 24 37 44 64 48 65 1 0 25 -30 54 -67z m1533 15 c24 -33 30 -53 32
-104 l3 -63 -125 1 c-132 1 -129 -1 -89 44 6 6 37 47 70 91 33 44 65 78 70 76
6 -2 23 -22 39 -45z"/>
<path d="M1593 1865 c0 -8 4 -12 9 -9 5 3 6 10 3 15 -9 13 -12 11 -12 -6z"/>
<path d="M80 679 l0 -48 138 -3 c75 -2 174 -2 220 0 l83 3 -3 47 -3 47 -218 1
-217 0 0 -47z"/>
<path d="M2043 714 c-7 -18 1 -89 10 -86 4 1 102 2 218 2 l210 0 -3 48 -3 47
-214 1 c-157 0 -214 -3 -218 -12z"/>
<path d="M172 542 l-173 -2 3 -68 3 -67 190 -2 c105 -1 228 -2 275 -2 47 0 95
0 108 0 21 -1 22 3 22 69 0 49 -4 70 -12 70 -128 4 -277 4 -416 2z"/>
<path d="M1962 473 l3 -68 172 -2 c95 -1 190 -3 210 -3 21 -1 77 -1 126 0 l87
1 0 70 0 69 -300 0 -301 0 3 -67z"/>
</g>
</svg>
